<svg width="21" height="12" viewBox="0 0 21 12" fill="none" xmlns="http://www.w3.org/2000/svg">
<path d="M0.769999 7.82874L4.15625 11.25C4.23759 11.332 4.33437 11.3971 4.441 11.4415C4.54762 11.4859 4.66199 11.5088 4.7775 11.5088C4.89301 11.5088 5.00738 11.4859 5.114 11.4415C5.22063 11.3971 5.31741 11.332 5.39875 11.25C5.56172 11.0861 5.65319 10.8643 5.65319 10.6331C5.65319 10.402 5.56172 10.1802 5.39875 10.0162L2.28375 6.87499L20.125 6.875C20.3571 6.875 20.5796 6.78281 20.7437 6.61871C20.9078 6.45462 21 6.23206 21 6V6C21 5.76793 20.9078 5.54537 20.7437 5.38128C20.5796 5.21718 20.3571 5.125 20.125 5.125L2.23125 5.12499L5.39875 1.96624C5.48076 1.8849 5.54586 1.78813 5.59028 1.6815C5.6347 1.57487 5.65757 1.46051 5.65757 1.34499C5.65757 1.22948 5.6347 1.11512 5.59028 1.00849C5.54586 0.901863 5.48076 0.805086 5.39875 0.723743C5.31741 0.641731 5.22063 0.576636 5.11401 0.532214C5.00738 0.487791 4.89301 0.464921 4.7775 0.464921C4.66199 0.464921 4.54762 0.487791 4.441 0.532214C4.33437 0.576636 4.23759 0.641731 4.15625 0.723743L0.769999 4.11874C0.278424 4.61093 0.00231034 5.27812 0.00231028 5.97374C0.00231022 6.66937 0.278424 7.33656 0.769999 7.82874Z" fill="black" fill-opacity="0.6"/>
</svg>
